# xmcd
#
# Track frame offsets:
#	150
#	6052
#	18002
#	23660
#	35082
#	50922
#
# Disc length: 916 seconds
#
# Revision: 1
# Processed by: cddbd v1.5.1PL0 Copyright (c) Steve Scherf et al.
# Submitted via: CDex 1.50Beta5
#
DISCID=3f039206
DTITLE=instant cytron - チアフル・モンスター
DYEAR=1997
DGENRE=
TTITLE0=I’m hip
TTITLE1=Walkin’ in wonderland
TTITLE2=in the classroom
TTITLE3=Magic pop lollipop
TTITLE4=My thing
TTITLE5=Adventure monsters
EXTD=
EXTT0=
EXTT1=
EXTT2=
EXTT3=
EXTT4=
EXTT5=
PLAYORDER=
